<svg xmlns="http://www.w3.org/2000/svg" viewBox="0 0 8192 1845.3"><g fill="#014C8D"><path d="M3339.5 1564.3H3150c-.3-26.6-.1-52.8-.1-79v-315.2c-5.1 1.8-6.3 5.8-8.3 8.8-49.3 75.2-98.5 150.4-147.7 225.6-6.3 9.7-12.7 19.3-19 28.9-1.1 1.6-2.5 3-4.6 5.5-2.8-3.5-5.3-6.1-7.3-9.2-23.9-36.3-47.6-72.6-71.6-109-30.5-46.5-61-93.1-91.5-139.6-1.9-3-4.1-5.7-7.1-8.4-1.2 14.4-1.1 28.7-1.1 43v348.2h-187.8V874.2c7.6-1.9 185.6-2.7 203.2-.8 27.2 44.1 54.7 88.6 82.1 133 27.3 44.2 54.6 88.4 82.9 134.2 55.6-90 110.4-178.8 165.2-267.6h201.4c2.3 7.3 3 676.6.8 691.3zm3469.9-691.6h332.4c42.7 0 84.8 4.4 125.5 18.1 35.8 12 67.8 30.1 94.9 56.8 33.7 33.3 52.2 73.8 58.5 120.3 4.4 32.8 4 65.7-2.5 98.3-9.6 48.6-35 87.5-72.9 118.7-16.6 13.6-34.9 24.8-54.3 34-3 1.4-5.8 2.8-10.1 4.8 54.9 80.1 109.2 159.4 163.8 239-7.4 2.4-198.4 3.4-220.7 1.3-46.3-69.6-92.6-139.4-138.8-208.9h-84.8v209H6810c-2-7-2.7-675.9-.6-691.4zm191.3 331.5c3.1.2 5.2.6 7.5.6 40.8 0 81.6.3 122.5-.2 11.1-.1 22.4-1.5 33.3-3.9 38-8.3 69.6-35.1 66.2-86.8-2.2-33.4-18.6-55.3-49.4-67-16.5-6.2-33.7-8.5-51.3-8.5h-119.6c-2.9 0-5.7.3-9.2.6v165.2zm-972.1-330.9h555.9v161.6c-30.4.4-61 .1-91.4.2-30.6.1-61.3 0-91.9 0H6218v104.8c15.6.7 31.2.2 46.8.3 15.8.1 31.6 0 47.4 0h237.5v151.1c-22.1.1-44.1 0-66 .1h-266V1402c24.8.9 49.4.3 73.9.4 24.7.1 49.4 0 74.1 0h223.7V1563c-7 2.2-539.4 3.3-560.5 1.1-1.5-7-2.2-675.3-.3-690.8zM4097 1564.2c-16.7-40.8-33.3-81.2-50.1-122.2h-268.3c-16.3 40.5-32.6 81.1-49 122.1h-201.8c98.4-232.5 196.6-464.2 294.7-696.1h185.4c97.9 231.5 196.2 463.4 294.8 696.2H4097zm-182-466.3c-.8-.2-1.5-.3-2.3-.5-25.6 64.5-51.5 128.9-77 194.1h155.2c-25.5-65.2-50.7-129.3-75.9-193.6zm1108.8-144.8c-32.2 45.5-63.7 90.1-95.8 135.3-3.5-2.3-6.4-4.2-9.3-6.1-40.3-27-83.8-46.8-131.6-56.4-26.3-5.2-52.8-7.8-79.5-3.2-10.9 1.9-20.9 5.9-29.4 13.1-20.2 17.4-19.3 47.7 2.5 63.1 7.7 5.4 16.5 9.6 25.3 13.1 27.3 11.1 55.9 17.2 84.5 23.7 40.5 9.1 80.4 20.1 119 35.7 22.3 9.1 43.6 20.3 63.1 34.5 42 30.8 65.3 72 69.2 124.2 2 25.9.8 51.4-5.4 76.5-14.1 57.5-48.5 99.9-99.3 129.5-33.2 19.3-69.3 30.6-107 35.7-98.1 12.9-193 .4-283.8-39.5-36.7-16.1-70.1-37.7-100.6-63.6-2-1.7-4-3.5-5.8-5.3-.4-.4-.6-1.2-1.4-2.8 34.9-41.7 70.1-83.8 105.7-126.4 3.6 2.7 6.7 4.9 9.8 7.2 43.4 32.8 90.9 56.8 144.4 68.1 33.4 7.1 67.1 10.5 101 4.9 9.9-1.6 19.8-5.3 28.7-9.9 26.4-13.3 28.3-54.2 2.4-69.7-13.9-8.4-28.6-15.1-44.2-19.4-28.3-7.7-56.8-14-85-21.9-30.7-8.6-61.4-17.5-91.6-27.6-24.5-8.1-47.1-20.4-68-35.7-36.2-26.7-60.8-61.1-68-106.1-15.2-93.9 18.6-180.3 108.7-228.4 20.8-11.1 42.6-19.1 65.3-24.8 43.6-11 88-11.7 132.5-9 38.8 2.4 77.1 8.8 114.2 21 43.9 14.3 84.3 35.3 121 63.4 2.6 2 5.1 4.2 8.4 6.8zm2563.3 508.2c35.6-42.5 70.8-84.6 106.3-127.1 3.6 2.6 6.5 4.6 9.3 6.7 43.6 33 91.4 57 145.2 68.6 28.9 6.2 57.9 8.6 87.4 6.7 14.9-1 29.4-3.9 42.4-11.8 17.1-10.4 24.1-28.4 19-47.6-2.4-8.8-7.3-15.7-14.8-20.3-9.6-5.7-19.5-11.1-29.7-15.3-24.7-10.2-51.1-14.9-76.8-21.7-35.3-9.3-70.5-19-105.5-29.5-27.2-8.3-52.6-21-75.8-37.5-36-25.5-61.8-58.6-69.9-102.7-13.2-72.3-.1-138.4 52.3-193 29.2-30.4 65.5-49.3 105.4-61.7 24.3-7.5 49.3-12 74.6-13.3 61.2-3.3 121.8 1.2 180.8 19.2 46.4 14.1 89 36 127.6 65.4 2.6 2 5 4.2 8.2 6.8-31.9 45.2-63.6 89.9-95.6 135.2-4-2.6-7.2-4.5-10.5-6.7-40.1-26.8-83.3-46.4-130.8-55.7-26.3-5.2-52.8-7.7-79.5-3.1-11.6 2.1-21.8 6.7-30.8 14.6-17.3 15-16.6 47.6 2.9 60.7 7.1 4.7 14.6 9 22.4 12.3 25.8 11.1 53.1 17.4 80.4 23.5 41.5 9.3 82.5 20 122.2 35.5 23 9 45.1 20.2 65.3 34.5 46.8 33 70.9 78.4 72.7 135.5.7 21.4-.3 42.8-5.1 63.8-12.7 55.5-44.3 97.6-92 128-31.5 20.1-66.2 32.8-102.9 38.4-117.6 18.3-229.5 1.1-334.2-56.9-22.2-12.3-42.7-27.3-62.1-43.7-2.8-2.4-5.4-4.9-8.4-7.8zM3751.8 769h-144.4V235h156.3c41.9 68 84.1 136.3 126.1 204.3h1.6c.3-.1.7-.1.9-.3.5-.4 1-.9 1.3-1.5 41.7-67.5 83.4-135 125.2-202.7h156.4v534.1h-146.4c-1.3-25.1-.4-50.3-.6-75.5-.2-25.4 0-50.7 0-76.1V466.5c-.9-.4-1.2-.6-1.5-.7-.3 0-.7 0-.9.1-.5.4-1 .9-1.4 1.4s-.8 1.1-1.1 1.6c-43.6 66.7-87.3 133.3-130.8 200-.2.3-.4.5-.7.7l-.7.7c-.3.2-.6.3-1.3.6-4.2-1-5.3-5.2-7.3-8.3-37.5-56.9-74.7-113.9-112.1-171l-13.5-20.7c-1-1.5-2.4-2.9-5.2-6.1.1 102.7.1 202.9.1 304.2zm4281.1-255.6v-277c7.6-2.4 129.2-3.2 146.2-1.1v532.8c-8.1 2.2-83 2.9-129.4 1.2-75.2-96.6-151-193.7-226.8-291-.8.2-1.6.5-2.4.7v289.9h-145.7V235H7813c72.1 92.5 144.9 185.9 217.6 279.4.7-.4 1.5-.8 2.3-1zm-2209 360v166.8h-207.4v523.9h-191.6v-523.5h-206.8c-2.2-8.1-2.8-153.3-.9-167.2h606.7zM2928.7 234.7h146.8c2.1 7.4 3 514.3 1 533.2-7 2.1-135.8 2.5-147.5.3V566.7h-191.2v202.2h-147.6V235h147.3l.3 33v164.6c7.7 2.4 176.9 3 190.8.9.1-65.8.1-131.8.1-198.8zm1392.2 534.1c76.2-180.2 151.9-359 227.6-538.1H4692c75.7 178.9 151.4 358 227.6 538h-158.8c-12.8-31.3-25.9-63.2-38.9-95.1H4515c-12.7 31.6-25.4 63.3-38.1 95.1-51.9.1-103.1.1-156 .1zm237.8-210.4h120c-19.8-50.4-39.1-99.7-58.5-149.1h-2.2c-19.7 49.3-39.3 98.6-59.3 149.1zm1427 115.4h-206.9c-12.6 31.6-25.4 63.3-38.2 95.3h-155.8c76.1-180 151.8-358.9 227.6-538.1H5956c75.5 178.6 151.2 357.6 227 536.6-7.8 2.5-135 3.4-158.3 1.3-13-31.4-26-63.2-39-95.1zm-43.2-115.3c-6.8-17.5-13.1-33.9-19.7-50.4-6.6-16.9-13-33.8-19.9-50.5-6.5-16.1-12-32.7-20.5-50.1-20.5 51.5-40 100.9-60 151h120.1zm1586.9 210.6h-158.8c-12.8-31.5-25.8-63.2-38.9-95.2h-207.1c-12.6 31.4-25.4 63.2-38.1 95h-155.8c76.1-180 151.8-358.9 227.6-538.1h143.6c75.4 178.8 151.2 357.8 227.5 538.3zm-242.5-210.5c-1.5-10-54.4-143.6-59.2-149.5-19.8 49.7-39.4 99.2-59.4 149.5h118.6zm-728.6-129.3c37.6-65.9 74-130 110.7-194.4h165.2c-2 3.5-3.5 6.5-5.2 9.4-51.4 84-102.8 167.9-154.1 251.8-12.7 20.8-25.3 41.6-38.2 62.3-3.5 5.5-4.9 11.1-4.9 17.6.2 60.3.1 120.5.1 180.8V769h-149.2v-11.9c0-58.6-.1-117.2.2-175.8 0-8.6-2.2-15.8-6.6-23.1-63.5-104.3-127-208.6-190.4-313-1.9-3.1-3.5-6.1-5.8-10.2h168.4c35.9 63.8 72.3 128.2 109.8 194.3zM5212.2 235.1v404.3h259.1V769h-405.9c-2-7.4-2.6-519.8-.6-533.9h147.4zm-1943.7-.1h147.7v534h-147.1c-1.9-7.5-2.6-519-.6-534zm3895.9 1485.5v93.8h-45.1c-2-7-2.6-156.1-.6-170.2h49.8c12.8 20.9 26.2 42.3 40.3 65.2 15-21.8 27.3-44.2 41.2-65.3h49.8v170.4h-46.2c-.8-10.3-.3-20.7-.4-31-.1-10.6 0-21.1 0-31.6v-31.3c-.7-.3-1.3-.5-2-.8-7.6 10-13.9 20.9-21 31.2-7.1 10.6-14 21.3-21.6 33-14.6-22.1-28.5-43.1-42.3-64-.5.2-1.2.4-1.9.6zm618.6-76.6h43.5c22.7 29.1 45.6 58.3 69.5 89 2.3-11.2 1-20.6 1.3-29.8.2-9.9.1-19.8.1-29.6v-29.3h46.3v170.1h-41.4c-23.4-29.9-47.2-60.5-71.1-91-.7.2-1.5.4-2.2.5-.1 7.3-.3 14.6-.3 21.9-.1 7.6 0 15.1 0 22.7v45.8h-44.9c-2.2-7.2-2.9-157.3-.8-170.3zm-2844.5 86.7v-86.8c8.2-.1 15.6-.3 23-.3 7.5-.1 15.1 0 22.4 0 2.2 7.4 2.9 155.2.8 171.4-13.1.3-26.5.1-40.5.1-24.3-30.1-47.5-61.4-72-91.6l-2.1.9v90.1h-46.2c-1.5-18.5-.5-37.2-.7-55.7-.2-19.1 0-38.2 0-57.3v-57h45c10.9 13.9 22.4 28.8 33.9 43.5 11.4 14.5 22.6 29 34 43.5.9-.4 1.7-.6 2.4-.8zm-1467.8-86.7h43.6c22.5 29 45.4 58.2 68 87.2 1.1-.3 1.4-.3 1.7-.5.3-.1.6-.4.6-.6v-86.2c8.3-.1 15.6-.3 23-.3 7.5-.1 15.1 0 22.4 0 2.3 7.5 3.2 149.9 1.1 171.2-6.5.1-13.3.3-20.1.4-6.5.1-13.1 0-20.8 0-11.9-15.2-24-30.7-36.1-46.2-11.9-15.2-23.7-30.4-35.6-45.6-.8.2-1.6.5-2.4.7 0 10-.1 20-.1 29.9v60.5h-44.9c-1.9-7.4-2.5-156.9-.4-170.5zm2200.4 111.7c13.4 19.7 26.3 38.6 40 58.7h-54.6c-11.2-16.8-22.8-34.3-34.2-51.4h-21.1v51.3h-46c-2.2-6.8-3.2-146.2-1.1-169.9 2.3-.3 4.7-.8 7.3-.9 26.4-.1 52.7-.1 79.1 0 12.6 0 24.9 2.4 36.3 8.2 18.1 9.5 27.7 24.4 29.1 45 1.7 25.2-7.7 44.2-30.4 56-1.4.8-2.3 1.6-4.4 3zm-69.6-28.6c14-.6 27.3-.4 40.1-2.1 11.2-1.5 16.7-9.4 16.6-20-.1-10.6-5.9-18.5-17.1-19.5-12.9-1.2-26.1-.3-39.7-.3.1 13.7.1 26.7.1 41.9zm-1499.8-83.5h85.7c12.6 0 24.9 2.2 36.3 8 18.6 9.5 28.3 24.7 29.5 45.7 1.5 24.8-7.8 43.6-30.1 55.3-1.4.7-2.6 1.8-4.5 3.2 13.1 19.3 26.1 38.2 40.3 59-10.4.1-19.1.2-27.7.3h-26.7c-11.5-17.2-23.1-34.6-34.9-52.3h-21v51.7h-46.9v-170.9zm46.9 82.9c11.7 0 22.4.1 33.2-.1 3 0 5.9-.7 8.7-1.5 10.4-2.9 15.7-10.7 15-21.4-.7-10.5-7.6-17.4-19.7-18.4-10.2-.8-20.4-.4-30.6-.4-2.2 0-4.3.7-6.7 1.1.1 13.4.1 26.1.1 40.7zM2842.5 1815v-170.7c2.8-.3 5.3-.8 7.8-.8 21.1-.1 42.1-.1 63.3 0 13.9 0 27.5 2.7 40.5 7.7 38.8 15.2 54.6 50 50.9 85.8-4.2 41.7-32 69.8-74.6 76-28.9 4.2-57.8 1.3-87.9 2zm47.4-42.9c13.5.5 26.7 1.9 39.3-2.7 16.1-5.7 25.5-17.2 27.1-34.3 1.7-17.5-2.6-32.8-18.7-42.6-14.9-9-31.2-7.9-47.7-6.8v86.4zm2157.3 42.2v-170.1c3-.3 5.5-.7 8-.8 21.1 0 42.1-.1 63.2 0 15.6.1 30.7 3.1 45 9.8 29.5 13.9 44.7 37.7 46.4 70.1.7 14-1 27.6-6.7 40.5-11.4 25.8-32 40.3-58.5 47-9.2 2.4-18.8 3.6-28.3 3.9-20.8.6-41.4.2-62.2.2-2.1 0-4-.3-6.9-.6zm47.5-42.3c10.3 0 19.6.7 28.6-.2 18.2-1.8 32.3-12.9 36-28.9 1.6-6.9 1.7-14.3 1.2-21.4-.9-13-7.6-22.8-18.9-29.4-14.7-8.5-30.6-7.5-46.9-6.4v86.3zm1876.1 46.3c-43.7-.8-79.4-27.5-89.4-67.5-12.6-50.4 21-100.9 72.3-109.1 18-2.9 35.5-1.7 52.5 4.6 34.8 12.9 61.1 46.6 57.2 91.8-3.1 36.2-31.8 68.7-69.3 77-7.6 1.7-15.5 2.2-23.3 3.2zm44.9-90c-.6-3.5-.9-7.8-2-12-8.1-32.4-47.7-44.9-71.9-22.6-21.1 19.5-19 57.2 4.4 73.7 14.4 10.2 30 11.3 45.7 3.1 16.6-8.5 22.8-23.7 23.8-42.2zM4308.2 1644h137v38.4h-90.3v27.6c27 1.5 53.8-.1 81.2.9v35.4H4355v29.4h91.2v38.6h-138V1644zm-1031.1-.1h136.4v38.4c-29.9.9-59.7-.1-90.1.6v27.5h81.3c1.1 12.1.5 23.4.5 35.9h-81.7v29.4h91.1v38.7h-137c-2.1-7.5-2.6-157.7-.5-170.5zm3064.5 131.8v37.8c-7.1 2.1-120.5 2.8-138.1.8-1.7-18.3-.5-37-.7-55.4-.2-19.1 0-38.1 0-57.3v-56c7.4-2.4 125.5-2.9 137.7-.8v37.8h-90.1c-1.3 9.5-1 18.1-.1 28h81.2v36h-79.8c-2.9 7.9-3.1 19.5-.6 29.4 29.8-.3 59.6-.3 90.5-.3zm-2459-131.8h47.4c.1 3.7.4 7.1.4 10.7 0 27.7-.1 55.3.1 82.9.1 6.2.7 12.6 2.4 18.5 3.8 12.7 15.3 20.1 29.7 19.9 15-.2 26.2-7.9 29.5-21.3 1.4-5.3 1.9-11.1 1.9-16.6.2-27.3.1-54.7.1-81.9V1645c8.2-2.5 16-1 23.7-1.3 7.5-.3 15-.1 23-.1.5 2.1 1.2 3.6 1.2 5.1-.1 33.9-.1 67.8-.8 101.7-.2 8-2.4 16.3-5.1 24-6.9 19.6-20.9 32.6-40.6 38.6-22.2 6.8-44.9 7-67.1.1-26.4-8.1-40.1-27.4-44.7-53.9-1.2-6.8-1.6-13.7-1.7-20.7-.2-28.7-.1-57.3-.1-85.9.3-2.5.6-5.1.7-8.7zm776.7-1.4h45.1c24.1 56.8 48.3 113.9 72.9 172h-50.5c-4.1-9.5-8.3-19.4-12.6-29.7h-66.6c-4.1 9.8-8.2 19.8-12.4 29.8h-47.7c.5-7.2 63.9-158.7 71.8-172.1zm22.9 59.2c-.8-.1-1.5-.1-2.3-.2-6 15-12 30.1-18.4 46.2h38.7c-6.2-15.9-12.1-31-18-46zm-2079 112.8c24.7-58.2 48.8-115 72.9-172h46c24.1 56.7 48.2 113.8 72.8 171.9h-50.5c-4.2-9.7-8.6-19.8-12.9-29.9h-66.2c-4.2 10-8.3 20-12.5 30h-49.6zm96.5-113.2h-2c-6 15.2-12.1 30.5-18.3 46.3h38.4c-6.2-16.3-12.2-31.3-18.1-46.3zm4917.2-58.9h45c24.1 56.8 48.3 113.9 72.9 172.1h-50.6c-4.1-9.4-8.2-19.4-12.6-29.7h-66.5c-4.2 9.8-8.3 19.8-12.6 29.9h-47.6c.6-7.1 63.3-157.3 72-172.3zm22.9 59.5h-2.5c-5.9 15-11.9 30-18.3 46.2 13.5.1 25.4.6 38.8-.4-6.4-16.3-12.2-31.1-18-45.8zm-1703.3 112.7h-48.6c-4.3-10.1-8.6-20.1-12.9-30.1h-66.3c-4.1 9.7-8.2 19.7-12.6 29.9h-49.6c24.5-57.7 48.5-114.5 72.7-171.8h45.4c7.9 13.4 71.2 164.9 71.9 172zm-75.2-66.9c-6.4-16.3-12.3-31.1-18.2-46.1-.8 0-1.6.1-2.3.1-5.9 14.9-11.9 29.9-18.2 45.9 13.2.1 24.9.1 38.7.1zm1547.2 17.9v48.7h-45.9c-2.1-7.8-2.4-159.5-.4-170.2 2.1-.2 4.2-.6 6.5-.6 23.7 0 47.4-.6 71.2.3 10.4.4 21.1 2.5 30.7 6.1 22.2 8.4 33.8 25.4 35.2 49 1.5 24.8-7.5 44.5-29.8 56.8-13.3 7.3-28 9.4-42.9 9.8-7.9.2-15.7.1-24.6.1zm.6-37.3c10.7 0 20.8 1 30.7-.2 11.7-1.4 18.6-10.4 18.9-21.6.3-11.5-5.4-19.9-16.6-22.4-10.9-2.6-21.8-1.5-32.9-.9-.1 15.6-.1 30.1-.1 45.1zm-610.5 25.8c11.8 8.4 23 16.3 34.2 24.2-13.9 29-55.5 45.4-93.7 37.5-40.6-8.4-67.9-40.9-69.8-83.2-1.8-40.5 23.6-77.1 62.3-88.4 37.5-11 80.5-.3 100.3 32.2-11.4 8.7-22.7 17.5-36.1 27.8-1.8-2.7-3-5.5-5-7.5-13.9-13.4-32.2-17.1-48-9.8-15.9 7.3-26.2 25.9-24.6 44.9.3 4 .9 7.9 2 11.7 10.8 36.5 49.3 37.7 67.7 20.9 3.3-3.1 6.6-6.3 10.7-10.3zM3229 1644c-23.5 58.1-46.4 114.7-69.3 171.4h-44.6c-22.9-56.8-45.9-113.5-69.1-171.1h52.9c12.6 34.6 25.2 69.7 38 104.9.7.1 1.3.2 2 .3 12.7-35.1 25.4-70.1 38.1-105.4 17.2-.1 33.9-.1 52-.1zm2856.7 171.4h-44.5c-22.9-56.7-46-113.7-69.3-171.4h52.9c12.7 35.1 25.4 70.2 38.1 105.4.7 0 1.3 0 2-.1 12.6-35.1 25.4-70.2 38-105.3h52c-23.2 57.6-46.1 114.2-69.2 171.4zM7989.5 1644h53.4c11.6 20.3 23 40.5 35.2 62 12.5-21.6 24-41.9 35.6-62.1h52.4c-2.1 3.8-3.7 6.7-5.3 9.6-18.2 29.7-36.3 59.5-54.7 89.1-3.3 5.2-4.8 10.5-4.7 16.7.3 14.8.1 29.6.1 44.4v9.5c-7.7 2.4-35.8 2.7-47 .7-.2-3-.5-6.2-.5-9.4-.1-15.1-.2-30.2.1-45.4.1-5.8-1.4-10.8-4.4-15.7-18.5-29.9-36.7-60.1-54.9-90.1-1.9-2.9-3.3-5.8-5.3-9.3zm-2585.3 40.6h-51.4v-40.4h149.5v40.4h-51.1v129.9h-47v-129.9zm-1621.4 129.8h-47.5v-129.8h-51.2v-40.7h149.5c.1 6.4.3 12.8.4 19.3.1 6.5 0 13.1 0 21h-51.2v130.2zm2744-40.8v39.7c-7 2.1-116.6 2.7-128.8.7-2-7-2.6-156.5-.6-169.9h46.2c.8 10.6.3 21.2.3 31.9.1 10.9 0 21.7 0 32.6v64.9c28.1.1 55 .1 82.9.1z"/></g><g fill="#014C8D"><path d="M631.3 1713c1.5-6.3 2.8-12.7 4.3-19.1 6.6-26.2 15-51.9 25.8-76.6 3.9-8.7 8.2-17.2 12.7-25.6 9.4-17.6 24.7-27.1 44-29.9 10-1.5 20.4-1.6 30.4-1.3 4.4.1 7.3-.6 10.4-3.8 17.6-18.8 35.8-37 52.9-56.1 10.7-12.1 20.4-25 29.5-38.2 14-20.4 27.4-41.1 40.6-62 4.3-6.9 9.6-12.6 16.6-16.4 12.5-6.8 24.9-13.4 37.4-20.2 12.7-6.9 25.2-14.2 36.9-24.4-1.5-1-2.3-1.9-3.3-2.2-19.3-6.6-38.5-13.2-58-19.6-14.2-4.6-18.5-3.1-26 9.7-5.5 9.3-10.7 18.9-15.9 28.5-8.6 15.8-22.4 23.3-39.7 25.9-16.2 2.4-32.2.7-48.2-1.1-17-1.9-34-4.2-51-5.7-3.6-.3-7.8.9-11.1 2.7-11.4 6.5-20.3 15.9-26.2 27.6-12.6 25-24.7 50.2-36.8 75.4-6.8 14.2-15.5 26.4-29.3 35.1-14.9 9.4-26 23.2-36.3 37.4-6 8.3-13.1 14.3-22.3 18.6-11.1 5-21.6 11.3-32.8 16-10.2 4.3-17.6 11.3-23.5 20.3-13.1 19.6-22.5 40.9-30.8 62.8-2.8 7.4-5.6 14.8-7.3 22.5-1.9 8.6-6.3 15.3-13.3 20-9 5.9-18.2 12.1-28 16.6-19.4 9-39.3 16.9-59 25.2-9.1 3.9-18.3 7.4-27.2 11.8-19.3 9.4-39.6 14.7-61.1 13.6-12.8-.7-22.6 4.2-30 13.6-7.9 10.1-14.9 20.9-22.2 31.3-2.1 3-3.7 6.1-5.5 9.2-21.1-15.3-100.8-150.9-134.4-228.3-35.4-81.6-60.7-166.2-76.1-253.8-15.4-87.6-20.7-175.8-15.6-264.7 5-88.7 20.1-175.8 45.5-261 134.8-452 539.8-786 1027.8-814 489.5-28.1 873.7 249.3 1050.9 561.3-29-6.5-54.3-20.5-75.2-42.6-11.8-12.5-25-23.4-37.7-35-8.1-7.4-14.1-15.7-17.9-26.6-7.4-21.3-19.3-40.3-37.2-54.8-1.6-1.3-3-2.6-4.5-3.8-12.4-8.7-22-18.9-25.8-34.5-2.3-9.5-8.3-17.8-15.8-24.6-4-3.6-8.4-5.2-13.6-4-23.3 5.6-46.6 11.3-69.9 17.2-5.7 1.5-11.1 3.8-14.3 9.6-1 1.8-4.2 2.9-6.6 3.3-14.3 2.6-27.2 7.9-36.6 19.5-3 3.8-6.7 4.2-10.6 3.6-11.9-1.8-19.7 3.9-25.1 13.4-7.9 13.6-16 27.3-22.9 41.4-3.8 7.7-9 12.7-16.8 15.4-11.2 3.9-22.2 8.1-33.6 11.5-11.1 3.3-20 9.3-24.9 19.6-7.7 16.3-20 25.6-38 27.2-4.1.4-6.8 2.6-7.7 6.5-4 16.4-15.2 25.7-29.8 32.6-13.7 6.4-17.4 19.4-19.4 34.4 3.7-1.3 6-2.2 8.3-3.1 16.1-5.8 32.1-11.7 48.2-17.4 13.3-4.7 26.9-8.8 40-14 7.1-2.8 13.4-2.2 18 3.3 6.8 8.3 12.7 17.5 19 26.3 3.6 5 6.6 10.6 10.7 15.2 13.8 15.9 28.1 31.5 42 47.2 2.6 2.9 4.8 6 6.4 10.4-2-.5-4.2-.7-5.9-1.6-16.4-8.3-33-16.3-49.1-25.3-5.5-3.1-10.1-8.3-14.4-13.1-5.9-6.6-11.4-13.7-16.7-20.8-7.9-10.3-18.3-12.5-29.9-8.8-7.5 2.4-14.9 5.3-21.9 8.9-34.5 17.4-67.6 36.9-98 60.9-2.1 1.7-4.2 3.2-6.3 4.7-15.9 11.8-26.9 26.7-31.1 46.4-4.1 19-8.9 37.8-13.2 56.7-2.8 12-6.7 23.3-13.1 33.9-8.4 13.7-16.4 27.8-24.2 41.9-5.6 10.1-13.1 18.3-23.1 23.7-14.4 7.8-29.2 15.3-44.2 21.8-18.4 8-37.2 15.3-56 22-19.2 6.8-30 20.2-35.5 39.2-5.8 20.5-7.7 41.3-7.7 62.5 0 16.3-2.5 32.1-7.7 47.5-4.4 13.2-11 25.3-19.9 36.2-19.2 23.6-36 48.8-50.2 75.6-4.8 9.2-7.7 19.5-11.9 29.2-2.6 6-5.1 12.2-8.7 17.6-10 15.3-22.4 28.5-36.8 39.7-7.3 5.7-15 10.4-24.3 12.7-4.9 1.2-9.7 4.1-14 7-8.7 5.9-17.2 12.2-25.5 18.7-3.8 3-6.9 6.9-10 10.8-3.7 4.6-6.6 9.8-10.1 14.6-9.3 13.3-21.5 22.7-36.2 29.7-18.4 8.9-36.4 18.4-54.3 28.3-20.4 11.3-36.3 27.2-47.1 47.9-23.2 44.3-56.7 80.6-89.7 117.4-.9 1-1.8 2-2.7 2.9-20.2 21.8-20.2 21.8-48.8 30.2-9.5 2.8-19 5.5-28.6 7.6-7.1 1.5-13 4.7-17.7 10-6.6 7.7-13.7 15.2-19.1 23.9-14.8 24.1-28.8 48.7-43 73.2-1.6 2.8-3.1 5.6-4.6 8.4-.9.1-1.6-.1-2.3-.4z"/><path d="M1744.6 814.4c4.2 13.2 7.6 24.8 11.4 36.4 4.2 12.8 11.8 23.2 22.8 31.4 12 8.8 23.5 18 34.9 27.6 8.5 7.2 16.5 15.1 24.3 23.1 6.8 7 9.3 15.8 11.5 25.5 10.5 46.4 33.3 84.3 78.8 104.4 12.6 5.5 24.4 12 33.9 21.6 12.9 13 25.2 26.9 37.5 40.6 9.7 10.8 18.8 22 28.4 32.9 8.8 10.1 20 14.3 33.2 14.6 14.1.4 28.2 1.6 42.9 2.5 2-5.6.5-12.1-.7-18.4-4.8-26.2-15.3-50.3-27.7-73.6-3.3-6.1-4.8-11.9-3.5-18.8 4-20.7 7.1-41.5 11.3-62.2 4.8-24.1 0-45.1-18.3-62.3-5-4.7-9.9-9.7-14.7-14.6-4.9-5-8.2-11.2-9.2-18.2-4.2-27.3-1.1-54.3 2-83.3 16.1 45.3 37.5 85.5 62.5 123.9 11.7 18 15.2 37.6 10.9 58.6-1.1 5.1-1.7 10.4-3.1 15.5-6.4 24.7-5.1 49.1 3.7 72.8 8.4 22.8 17.9 45.3 27.3 67.7 2.1 5 2.9 9.5 2.1 15.1-3.9 26.7-8.1 53.4-10.4 80.2-3.5 39.1 5.6 76.5 19.6 112.9 1.2 3.1 2.5 6 3.8 9.4-2.1 2.3-4.1 4.5-6 6.6-20.9 21.9-41.8 43.9-62.6 65.9-4.7 5-8.8 10.6-12.9 16.2-3.7 4.9-4.2 10.1-.2 15.4 6.8 9.2 8.7 19.8 8 30.9-.7 12.4-.7 25-7.4 38.2-.9-3.2-1.5-4.7-1.7-6.3-1.8-11.4-6.4-21.4-13-30.5-6.2-8.5-12.5-17-19.5-24.8-10.3-11.5-11.1-23.2-3-36 5.4-8.6 10.2-17.8 16.4-25.8 13.3-17.1 27.3-33.8 41.4-50.3 3.4-4 4.9-7.2 3.1-12.3-9.7-25.5-19.1-51.1-28.8-76.7-8.8-23.3-24.6-40.1-47.1-50.7-1.5-.7-2.9-1.9-4.3-2.3-15-4.2-21.7-15.3-28.1-28.8-12.6-26.8-26.9-52.8-41.2-78.7-5-9.1-12.1-17.2-18.7-25.4-4.4-5.5-10.3-8.7-17.5-10.1-6.7-1.3-13.2-4.1-19.4-7.1-18.3-9-33.8-21.5-47-37-9.3-10.9-16.2-23.1-20.2-37-2.7-9.5-5.7-18.9-8.8-28.3-5.9-18.3-16.5-33.3-30.5-46.4-12.7-11.9-24.4-24.9-36.7-37.4-19.7-20-22.4-43.7-15.7-69.6 1.2-4.4 2.8-8.8 4.2-13.1-.1-.8.7-1.7 2-3.9zm-687 982.4c5-8.1 10.2-16.1 15.2-24.2 13.1-21.2 26.1-42.7 36.3-65.6 3.1-6.8 7.5-13.2 12.4-18.9 10.9-12.7 22-25.3 33.8-37.3 32.6-33.1 63.7-67.5 92.4-104.2 6.1-7.8 12.7-15.2 19.2-22.6 8.8-10.1 19.7-17.4 32.3-22 9.6-3.6 19.1-7.3 28.6-10.9 17.8-6.6 29.9-18.6 36-36.8 1.5-4.3 3.6-8.5 5-12.8 5.9-18.2 15.6-34 29.1-47.5 12-12.2 20.4-26.7 26.4-42.5 3.2-8.3 6-16.7 8.8-25.2 4.2-13 10.6-24.8 19.8-35 22.6-25 46.4-48.6 75.2-66.6 5.2-3.3 9.8-7.8 13.9-12.4 5.3-5.8 10.1-12.2 14.9-18.4 10.7-13.5 21.9-26.4 36.2-36.2 11.7-8.1 17.9-19.2 19.2-33 1.3-14 2.1-28.2 2.5-42.3.1-5.3 1.5-9.3 4.8-13.3 10.8-12.8 21.2-26 31.7-39.1 2.5-3.1 4.8-6.2 6.9-9.6 5.7-9.1 5-12.7-2.3-21-3.7-4.2-7.2-8.6-9.9-13.4-3.9-6.8-5-14.6-1.9-21.9 4.7-10.6 5.1-21.6 5.6-32.8.1-1.6.3-3.2.6-5.7 1.9.8 3.5 1.1 4.5 2.1 19.9 17.2 39.9 34.3 59.5 52 8.4 7.5 14.3 16.8 18.1 27.8 5.9 17.2 17.4 31.2 31.3 42.4 12.9 10.3 17.5 23.3 17.5 38.8 0 6.6 0 13.2-.6 19.8-2.2 22.6.7 44.8 8 66.2 5.5 16.2 11.8 32.1 17.8 48.1 1.5 4 3.3 7.8 3.9 12.6-2-2.2-4.1-4.3-5.8-6.6-14.3-17.6-28.2-35.7-45.4-50.7-7.9-6.9-10.4-16.3-10.9-26.6-.8-15.4-2-30.8-3.6-46.3-1.2-11.6-4.9-22.2-11.4-32.2-5.1-7.9-8.3-17.2-12.8-25.5-9.6-17.7-24.3-30.3-41.1-41.4.6 3.5 1 7 2 10.5 2.9 10.4.6 19.7-5.5 28.1-7.8 10.6-15.1 21.8-24.5 30.8-11.2 10.8-14.3 23.6-15.8 38-2.3 22.9-5 45.8-7.8 68.6-.3 2.5-1.3 4.9-2.1 8-8.2-2.4-15.8-4.2-23.1-6.8-4.4-1.6-7.4-.6-10.4 2.9-9.4 11.2-16.4 22.8-13.8 38.4 2.6 15.2 4.1 30.6 6.3 46 .8 5.1 2.5 10.3 4.2 15.2 9 25.1 19.6 49.5 30.7 73.7 10.4 22.6 17.5 46.7 25.6 70.5 4.3 12.7 7.8 25.7 10.6 39.4-1.6-1.7-3.2-3.4-4.6-5.1-14.4-18-28.7-36.1-43.2-54-4.9-6.1-10.7-11.5-18.7-13.9-6.3-2-10.2-7.3-12.7-13.2-4.2-10.3-8.3-20.8-11.9-31.3-6.2-18.7-11.6-37.8-18.3-56.3-3.3-9.2-8.1-18-13.4-26.2-4.7-7.4-7-7.3-14.7-3.1-3.5 1.9-7.1 3.7-10 6.3-19.9 18.9-35.3 40.6-42.7 67.5-1.4 5-3.4 10.1-6.2 14.3-11 16.4-21.7 33-33.7 48.6-14 18.4-26.9 37.5-35.3 59.1-1.3 3.4-2.9 6.6-4.2 10-9.2 21.2-24 37.6-45.6 45.7-38 14.1-65.9 40.3-90.8 70.7-30.9 37.7-62.1 75.1-92.6 113.2-12 14.8-22.4 30.8-33.6 46.3-2 2.7-3.9 5.3-6.1 7.7-17 17.8-37.8 30.4-58.5 43-.3-.9-.8-1.4-1.3-1.9z"/><path d="M1734.6 454.8c3.2-5.1 8.5-7.5 13.8-9.9 17.8-8 36.6-12.9 55.8-15.6 10.1-1.5 20.3-1.9 30.4-2.4 11.9-.6 22.9 2.1 32.8 8.8 4.2 2.9 8.3 4.4 13.7 2.6 6.5-2.3 12.6.1 16.8 5.3 3.6 4.2 6.8 8.9 9.3 13.9 8.5 17.2 14.7 35.2 16.9 54.4 2.3 20.1 8.6 39 14.6 58.2 5.4 17.2 9.5 34.9 13.9 52.4 1 3.7 1 7.6-.3 12.3-12.3-15.5-24.5-31.1-38-48.2-1.5 12.7-1.7 23.6-4.2 34-6.2 24.4-1.9 47.6 5 70.9 2.6 8.5 4.7 17.2 8.2 25.3 4.5 10.7 5.1 21.5 4 32.8-1.2 11.2-2.1 22.3-2.9 33.4-.9 11.3-1 22.6 3.1 33.2 10.9 28.5 9.7 57.4 4 86.6-3.7 18.7-7.8 37.4-11.9 55.9-.3 1.5-1.2 2.8-2.5 5.7-1-16.7-1.7-31.7-2.9-46.6-2-26.3-5.3-52.4-11.8-78-4-15.7-9.5-30.7-17.6-44.9-12.3-21.5-20-44.5-18.2-69.7.5-7.2 1.1-14.5 3-21.4 7.6-28.6 9.2-57.8 10.7-87.1 1.3-26 1.4-52 2.2-78 .2-7.9.9-15.8 1.6-23.6 2.2-23.8-9.6-45.4-31-55.9-6.2-3.1-12.8-5.2-20-4.3-11 1.5-21.7-.1-32-3.9-7.1-2.6-14.1-2.9-21.3-1.6-10.7 2-21.2 4.2-31.9 6.1-4.2.8-8.3 1-12.6 1.5-.1-.6-.4-1.4-.7-2.2zM1479 812.1c2.7-1.8 5.6-3.4 8-5.4 11.4-10 23-19.7 33.9-30.2 18.8-18.1 41-29.8 65.8-36.4 29.7-7.9 58-19.2 86-31.6 9.3-4.2 19-7.4 28.6-11 7.1-2.7 14.3-2.3 21.1.7 7.8 3.4 16 6.3 23.2 10.8 28.6 17.6 56.8 35.7 85.2 53.6 1 .6 1.8 1.7 4 3.8-8.7.9-15.7-.6-22.3-2.7-17.9-5.4-35.7-11.4-53.4-17.7-10.9-3.9-21.5-8.2-32-12.9-10.5-4.7-21.1-5.4-31.8-2.6-14.2 3.9-28.3 8.6-42.2 13.6-11.1 4.1-21.7 9.4-32.8 13.6-6.4 2.5-13.2 3.8-19.8 5.8-4.6 1.5-9.5 2.9-13.8 5-5.5 2.8-11.1 5.9-16.1 9.6-26 19.4-56.7 27-87 36-.9.3-1.9-.1-2.9-.1-.5-.6-1.1-1.2-1.7-1.9zm-225 579.8c-1.1-12.4-1.5-24.8-3.7-37-1.4-7.9-4.9-15.5-8.1-23.1-1.1-2.6-3.2-5.4-5.5-6.8-12.8-7.1-13.8-20-15.7-32.1-1.7-10.9.3-21.4 5.3-31.6 7.7-15.7 9-32.9 10.1-50 1.3-20.1 1.5-40.1 2.1-60.2 0-1.2.2-2.4.5-5.2 13.2 29.3 22.9 57.7 22.4 88.5-.4 26.5 2.5 52.6 7.3 78.5 5.4 28.3-2.3 54-14.7 79z"/></g></svg>