<svg xmlns="http://www.w3.org/2000/svg" xml:space="preserve" width="100%" height="100%" style="fill-rule:evenodd;clip-rule:evenodd;stroke-linejoin:round;stroke-miterlimit:2" version="1.1" viewBox="0 0 313 99"><g id="_2606633419264" transform="translate(-136.167 -235.292)"><g><path d="M136.167 293.868c0 .538.092.654.186 1.123.501 2.468 1.28 4.782 2.118 7.165l1.179 2.748c1.764 3.902 4.064 7.342 6.681 10.695.41.525.79.909 1.226 1.393.024.026.088.101.111.128l2.799 2.913c.148.136.216.202.37.345l3.588 3.076 7.529 4.73c1.32.658 3.003 1.522 4.44 1.986l8.314 2.398c1.471.265 3.152.682 4.662.693.929.007 1.48.24 2.498.24 2.466 0 5.753.116 8.167-.284.31-.051.637-.147.898-.173.832-.085 1.113-.116 1.705-.674.437-.41-.318.292.122-.117l1.575-1.638c.139-.147.159-.175.279-.316l.055-.065.054-.065a8.28 8.28 0 0 0 .162-.194l1.383-1.711c1.438-1.849 2.752-3.715 3.809-5.831 2.713-5.424 3.619-10.308 1.444-16.32-.618-1.708-2.043-3.836-3.249-5.201l-1.189-1.311c-.173-.157-.257-.233-.429-.405-.303-.305-.52-.545-.841-.825l-1.805-1.527c-.342-.245-.624-.405-.979-.687l-1.775-1.201-.073-.045-3.34-2.015a63.794 63.794 0 0 0-2.059-1.275l-.074-.044-4.175-2.49c-.192-.125-.32-.225-.496-.338-.242-.155-.251-.142-.537-.296-.406-.219-.667-.441-1.031-.635-1.5-.797-2.786-1.735-4.266-2.518.134-.499.458-.987.664-1.479l1.343-3.06c.261-.554.48-.915.729-1.532l6.509-14.319c.44-.946 1.51-3.172 1.705-4.008-.534.142-4.678 3.025-5.039 3.292-.067.049-.194.147-.204.154l-1.821 1.154-.07.048-1.157.748-.072.047-4.865 3.229c-.295.177-.503.324-.792.516l-1.571 1.047-3.902 2.525c-.291.179-.5.322-.781.528l-.275.201-.072.048c-2.528 1.685-5.008 3.438-7.6 5.015l-13.495 8.88c-2.32 1.395-4.543 3.033-6.812 4.493-.27.175-1.458.75-1.458 1.041ZM194.245 280.778c.558.13.664.166 1.151.396l1.145.521c1.67.755 2.993 1.561 4.677 2.582.229.139.363.182.537.298.189.126.266.225.464.369 2.202 1.602 4.375 3.317 6.179 5.365l3.061 3.961c.157.261.14.273.315.518.172.242.183.232.325.508.374.724.72 1.319 1.102 2.11l.291.542c1.937 3.928 2.651 8.394 2.651 12.821 0 1.23-.18 2.261-.241 3.449-.029.571-.163 1.077-.241 1.662a24.254 24.254 0 0 1-.281 1.623l-1.089 4.504c-.142.502-.371 1.044-.408 1.496.564-.151 1.221-.786 1.677-1.179l1.709-1.504.13-.107c.24-.201.285-.248.5-.452l1.445-1.411c.024-.024.09-.099.113-.125.092-.102.124-.143.226-.25.32-.333.586-.559.885-.901l3.277-3.981c.119-.165.078-.113.194-.284l.095-.141c1.952-2.776 4.197-6.372 5.372-9.505l1.709-4.598c.644-1.903 1.043-3.847 1.421-5.84 1.391-7.344.741-15.568-1.115-22.469l-.944-2.864c-.39-.96-.677-1.949-1.104-2.823-.848-1.734-1.536-3.527-2.589-5.146l-1.427-2.383c-.193-.304-.045-.062-.2-.276l-2.194-3.042c-.301-.402-.564-.685-.851-1.053l-6.025-6.113c-.144-.124-.119-.102-.25-.227-.263-.25-.262-.242-.522-.429-.02-.015-.051-.033-.071-.049l-2.057-1.632c-.459-.328-.682-.699-1.31-.713-.125.537-.805 1.729-1.071 2.261-.384.768-.772 1.486-1.14 2.311-.37.825-.727 1.435-1.07 2.263-.792 1.919-1.867 3.785-2.79 5.66l-1.702 3.533c-.211.399-.306.732-.517 1.151-.223.443-.374.745-.595 1.189l-2.216 4.569c-.208.464-.32.652-.528 1.137a12.38 12.38 0 0 1-.534 1.133c-.893 1.638-5.537 11.188-5.569 11.569v-.004ZM136.763 272.209c.316-.074.236-.069.505-.208l3.51-2.084.075-.044 4.688-2.811.074-.044 2.846-1.677c.023-.013.054-.03.075-.044l34.547-20.674c.356-.224.483-.323.887-.541l8.417-5.031c.353-.235.587-.314.908-.52.685-.438 2.076-1.46 2.855-1.668-.27-.368-.63-.283-1.245-.422-.265-.059-.45-.071-.699-.134l-2.108-.391c-1.644-.218-2.87-.478-4.639-.478-.716 0-.863-.119-1.539-.128-2.16-.026-4.741-.073-6.752.279-.367.064-.717.052-1.221.088-.434.031-.695.165-1.095.215l-3.807.716c-.304.064-.369.064-.593.121l-1.041.268c-.029.01-.058.022-.088.031l-3.89 1.228c-.414.155-.675.247-1.037.391-.64.258-1.183.486-1.853.764-.662.275-1.128.536-1.787.831-.425.19-.481.273-.842.467l-1.727.893c-.344.182-.538.321-.832.477l-3.338 2.137-.068.05a4.129 4.129 0 0 0-.069.051l-1.558 1.178c-.143.116-.037.038-.194.163-.927.732-1.89 1.437-2.727 2.272l-1.18 1.082-.064.055-.482.47c-.147.148-.186.181-.299.297l-.337.377c-.427.49-.853.832-1.293 1.325l-1.46 1.753c-.118.139-.184.227-.325.389l-.221.255c-.016.019-.039.046-.054.066l-3.546 5.142c-.193.296-.292.529-.476.834l-.91 1.707c-.886 1.452-1.907 3.757-2.447 5.408l-1.248 3.989c-.131.481-.283.507-.297 1.13h.001Z" style="fill:#1a7b89"/></g><g><g><path d="M331.219 266.835h-4.045v-16.187c4.353 0 9.011-.666 10.864 4.608 1.671 4.754-.229 11.578-6.819 11.578v.001Zm-8.925 4.284h8.688c6.953 0 12.496-4.269 12.496-11.901 0-2.443-.125-3.761-.984-5.918-.633-1.587-1.29-2.475-2.36-3.591l-.738-.691c-.785-.669-1.881-1.289-2.822-1.7-1.282-.559-3.153-.954-4.997-.954h-9.283v24.755ZM366.804 258.504h-6.427v-7.856h5.713c2.901 0 4.319 3.88 2.598 6.527-.327.503-1.125 1.329-1.884 1.329Zm-11.306 12.615h4.879v-8.331c.628 0 4.361-.103 4.68.115.188.129.238.314.372.544.247.428.436.708.684 1.102l4.142 6.569h5.356c-.05-.597-2.423-4.115-2.788-4.71-.5-.815-2.662-4.073-2.806-4.693 1.943-.452 4.285-3.852 4.285-6.188 0-3.28-.282-4.191-2.361-6.803-.914-1.149-3.339-2.361-5.137-2.361h-11.306v24.756ZM310.154 258.504h-6.426v-7.856h5.712c1.858 0 3.332 1.72 3.332 3.571 0 1.217-.01 1.941-.762 3.046-.313.46-1.169 1.239-1.856 1.239Zm-11.187 12.615h4.761v-7.974c0-.575 1.047-.357 2.142-.357h2.618c.105.455.934 1.607 1.229 2.104l2.557 4.108c.451.716.876 1.438 1.332 2.119h5.474c-.538-1.018-5.585-8.858-5.712-9.402 3.051-.711 6.1-6.518 3.165-11.377-.388-.641-1.002-1.442-1.527-1.924-1.031-.948-2.926-2.052-4.852-2.052h-11.187v24.755ZM263.145 271.119c5.221 0 4.907.366 4.886-.945l-.011-8.58c-.009-.53-.14-1.067.361-1.067h10.355c.273 0 .356.083.356.357v10.235h4.522c.502 0 .239-.185.239-.476V246.84c0-.291.263-.476-.239-.476h-4.522v9.998h-11.068v-9.998h-4.879v24.755ZM382.395 258.622c0-1.21.219-2.201.548-3.14 2.81-7.996 13.138-5.904 13.138 3.26 0 7.674-7.609 10.933-11.921 5.613-.451-.557-.985-1.655-1.248-2.442a10.217 10.217 0 0 1-.518-3.291h.001Zm-4.88-.356c0 3.766 1.151 7.056 3.301 9.196 2.766 2.752 4.831 3.776 8.957 3.776 2.303 0 3.938-.859 5.48-1.779 2.129-1.271 3.676-3.313 4.677-5.559 1.447-3.246 1.327-6.919.011-10.209a12.348 12.348 0 0 0-1.548-2.736c-1.703-2.255-4.631-4.709-8.263-4.709-2.95 0-4.464.091-7.088 1.837-1.531 1.019-2.492 2.12-3.506 3.635-.356.534-.704 1.222-.985 1.872-.522 1.208-1.036 3.001-1.036 4.676ZM427.856 271.119h4.881v-7.26c0-.485 2.941-3.116 3.095-3.689.412.109.733.745 1.045 1.214 1.979 2.97 4.842 6.619 6.928 9.734h5.117c-.114-.431-.836-1.269-1.142-1.714-.424-.615-.826-1.108-1.273-1.702l-6.292-8.586c-.346-.468-.874-1.379-1.291-1.684l8.837-10.325c.292-.308.451-.317.565-.743h-5.117c-.094.35-1.534 1.903-1.876 2.29l-5.331 5.975-.106.131c-.095.113-.081.099-.164.194l-.627.683-.054.064-2.315 2.565v-11.902h-4.88v24.755ZM424.644 265.406c-.403-.094-1.594-.835-2.017-1.077-.461-.264-1.465-1.018-2.029-1.066-.446 1.916-3.069 3.69-5.355 3.69-2.273 0-3.941-.827-5.189-2.429-.54-.694-.931-1.291-1.274-2.176-2.049-5.287.643-11.818 5.987-11.818 1.914 0 3.858.797 4.882 2.139.264.345.786 1.018.83 1.55.352-.094 3.221-2.106 3.808-2.499-.33-1.422-2.087-2.946-3.23-3.793-1.912-1.416-4.142-1.682-6.648-1.682-2.991 0-5.69 1.432-7.575 3.256l-.508.563c-.376.444-.538.596-.891 1.131-1.311 1.985-2.53 5.179-2.33 7.654.209 2.595.972 5.38 2.496 7.389 1.081 1.425 2.007 2.483 3.576 3.446 1.836 1.125 3.185 1.467 5.475 1.556a11.411 11.411 0 0 0 8.475-3.305c.512-.509 1.447-1.681 1.517-2.53v.001ZM239.461 250.648h7.855c.188.89.196 16.887.119 19.527-.035 1.225-.957.944 4.523.944.489 0 .236-.224.236-1.307l.001-16.783c-.001-2.825-.076-2.401 1.066-2.384h6.557c.552-.103.232-.117.232-.473v-3.332c0-.291.264-.476-.239-.476h-20.35v4.284ZM288.97 246.364h4.88v24.754h-4.88z"/></g><g><path d="M327.173 301.229h2.262v-13.092c.231.267.402.469.646.782l2.002 2.52c1.236 1.38 3.995 5.012 5.298 6.604 2.959 3.616 1.915 3.186 4.43 3.186v-17.257h-2.26l.041 12.514c.002.34-.18.176.077.697-.412-.11-.284-.144-.712-.716-.242-.323-.438-.493-.7-.847l-1.958-2.446c-.261-.323-.443-.568-.675-.872-.426-.558-.878-1.087-1.326-1.65l-2.63-3.32c-.284-.346-2.49-2.982-2.591-3.361h-1.904v17.258ZM269.214 299.206h-3.927v-12.972c0-.275.083-.358.357-.358 1.84 0 4.201-.16 5.732.456 4.938 1.986 4.428 8.57 2.051 11.135l-.117.122-.06.059a6.806 6.806 0 0 1-.446.387c-.914.716-2.255 1.171-3.59 1.171Zm-6.189 2.023h6.07c8.676 0 9.6-9.615 7.165-13.473-.232-.368-.55-.884-.828-1.196-1.282-1.44-3.442-2.588-5.504-2.588h-6.903v17.257ZM402.746 293.017h-5.237v-7.141c1.689 0 4.921-.217 6.126.301.472.202.667.417 1.009.776l.317.397c1.65 2.635-.138 5.667-2.215 5.667Zm-7.498 8.212c1.464 0 2.261.212 2.261-.357v-5.831h4.284c.36 0 .396.316.574.616.177.297.337.495.52.789.414.662 2.852 4.41 2.952 4.784h2.5c-.036-.432-.203-.555-.428-.881l-2.57-4.096c-.374-.582-.725-1.076-1.049-1.688.906-.075 2.074-1.067 2.501-1.663 2.933-4.093-.633-8.928-3.453-8.928h-8.093v17.256l.001-.001ZM307.06 301.229h11.425c.517 0 .357-.504.357-1.667 0-.273-.083-.356-.357-.356h-9.164v-5.951c.567.272 5.003.118 6.308.119 2.031.002 1.785.404 1.785-1.904h-8.093v-5.594h9.283v-1.904H307.06v17.257ZM416.67 301.229h11.782v-2.023h-9.521v-5.832h7.737c.539 0 .357-.611.357-1.904h-8.094v-5.594h9.283v-1.904H416.67v17.257ZM435.951 288.614c0 4.788 4.473 4.28 7.958 5.609 2.016.767 2.276 1.335 2.276 2.841 0 2.416-3.224 2.261-4.641 2.261-.918 0-2.201-.483-2.898-.792-1.594-.706-1.406-.844-2.339-1.469-.261.492-.904 1.443-.952 2.023.535.143 2.708 2.262 6.189 2.262 1.987 0 3.298.092 5.083-.987 2.062-1.245 2.548-4.052 1.427-6.118-1.441-2.653-7.484-2.538-9.164-4.048-.859-.771-.789-2.249-.14-3.186 1.276-1.839 5.484-1.518 7.633.215.309.25.091.204.516.318l.952-1.786c-.357-.238-.558-.421-.99-.677-2.746-1.632-6.996-1.834-9.433.252-.855.732-1.479 2.101-1.479 3.281l.002.001ZM371.326 293.255c0 2.367.775 4.4 1.865 5.752 3.015 3.743 12.893 4.064 12.893-6.465v-8.57h-2.261v8.926c0 8.038-7.771 7.617-9.474 3.881-.456-.999-.761-2.256-.761-3.405v-9.402h-2.262v9.283ZM247.316 286.71l1.667 3.807c.252.634.47 1.243.73 1.888.173.432.656 1.541.697 2.041h-6.07c.058-.688 2.917-7.04 2.976-7.736Zm-7.855 14.519h2.38c.238-1.023 1.612-3.744 1.904-4.999h7.379c.058.699 1.717 4.196 1.904 4.999h2.381c-.114-.49-.211-.61-.392-1.037l-6.63-16.22h-1.904l-6.153 15.031c-.202.479-.831 1.781-.869 2.227v-.001ZM290.517 301.229h1.904c.075-.323.252-.707.398-1.03l.875-2.219c.189-.442.289-.569.468-1.08l3.931-9.635c.185-.409.269-.674.449-1.099.314-.746.576-1.513.901-2.193h-2.38c-.129.266-.198.551-.321.869l-4.932 12.562c-.115.323-.194.656-.46.851l-2.773-7.106c-.486-1.25-.921-2.367-1.409-3.589-.226-.567-.459-1.208-.696-1.804-.219-.553-.465-1.262-.716-1.784h-2.38c.326.614.565 1.413.866 2.11l3.523 8.617c.155.435.331.688.475 1.072.169.452.258.668.442 1.105.627 1.488 1.124 3.01 1.835 4.353ZM349.667 285.876h5.593c.275 0 .357.083.357.358v14.995c1.464 0 2.262.212 2.262-.357v-14.996h5.95v-1.904h-14.162v1.904Z" style="fill:#5a5a5a"/></g><g transform="matrix(.79849 0 0 1 239.223 322.411)"><text x="0" y="0" style="font-family:&quot;Roboto-Bold&quot;,&quot;Roboto&quot;;font-weight:700;font-size:15.281px;fill:#373435">T<tspan x="9.245" y="0">O</tspan>UR OPERA<tspan x="91.553px 100.798px" y="0px 0px">TO</tspan>R IN <tspan x="143.508" y="0">T</tspan>HE HIM<tspan x="204.932px 215.214px 223.63px 232.793px 241.12px" y="0px 0px 0px 0px 0px">ALAYA</tspan>S</text></g></g></g></svg>